<svg xmlns="http://www.w3.org/2000/svg" xmlns:xlink="http://www.w3.org/1999/xlink" width="500" zoomAndPan="magnify" viewBox="0 0 375 374.999991" height="500" preserveAspectRatio="xMidYMid meet" version="1.0"><defs><g/><clipPath id="id1"><path d="M 135 142 L 240 142 L 240 254.796875 L 135 254.796875 Z M 135 142 " clip-rule="nonzero"/></clipPath><clipPath id="id2"><path d="M 155.566406 190 L 205.859375 190 L 205.859375 238.035156 L 155.566406 238.035156 Z M 155.566406 190 " clip-rule="nonzero"/></clipPath><clipPath id="id3"><path d="M 159 174.285156 L 210 174.285156 L 210 201 L 159 201 Z M 159 174.285156 " clip-rule="nonzero"/></clipPath><clipPath id="id4"><path d="M 195.410156 183 L 219.316406 183 L 219.316406 232.417969 L 195.410156 232.417969 Z M 195.410156 183 " clip-rule="nonzero"/></clipPath></defs><path fill="#b9bfff" d="M 256.648438 179.9375 C 255.539062 179.933594 254.527344 179.613281 253.617188 178.976562 L 187.5 133.113281 L 121.382812 178.976562 C 121.097656 179.15625 120.796875 179.304688 120.480469 179.425781 C 120.164062 179.546875 119.839844 179.636719 119.507812 179.695312 C 119.175781 179.757812 118.839844 179.785156 118.503906 179.777344 C 118.164062 179.773438 117.832031 179.738281 117.5 179.667969 C 117.171875 179.601562 116.847656 179.5 116.535156 179.371094 C 116.226562 179.242188 115.929688 179.082031 115.648438 178.894531 C 115.363281 178.710938 115.101562 178.5 114.863281 178.261719 C 114.621094 178.023438 114.402344 177.769531 114.210938 177.488281 C 114.019531 177.210938 113.851562 176.917969 113.714844 176.609375 C 113.578125 176.300781 113.472656 175.980469 113.394531 175.648438 C 113.320312 175.320312 113.277344 174.988281 113.261719 174.648438 C 113.25 174.308594 113.269531 173.972656 113.320312 173.640625 C 113.371094 173.304688 113.453125 172.976562 113.566406 172.660156 C 113.679688 172.339844 113.820312 172.035156 113.992188 171.742188 C 114.164062 171.449219 114.363281 171.175781 114.585938 170.921875 C 114.808594 170.667969 115.050781 170.4375 115.320312 170.230469 L 184.46875 122.234375 C 184.914062 121.921875 185.394531 121.6875 185.910156 121.523438 C 186.429688 121.363281 186.957031 121.28125 187.5 121.28125 C 188.042969 121.28125 188.570312 121.363281 189.089844 121.523438 C 189.605469 121.6875 190.085938 121.921875 190.53125 122.234375 L 259.679688 170.230469 C 259.96875 170.429688 260.230469 170.65625 260.472656 170.910156 C 260.714844 171.160156 260.929688 171.433594 261.117188 171.726562 C 261.304688 172.023438 261.464844 172.332031 261.589844 172.65625 C 261.71875 172.984375 261.8125 173.316406 261.875 173.660156 C 261.9375 174.007812 261.964844 174.351562 261.957031 174.703125 C 261.949219 175.050781 261.910156 175.398438 261.835938 175.738281 C 261.761719 176.082031 261.65625 176.410156 261.515625 176.730469 C 261.378906 177.054688 261.210938 177.355469 261.011719 177.644531 C 260.515625 178.359375 259.882812 178.921875 259.109375 179.328125 C 258.339844 179.734375 257.519531 179.9375 256.648438 179.9375 Z M 256.648438 179.9375 " fill-opacity="1" fill-rule="nonzero"/><g clip-path="url(#id1)"><path fill="#000000" d="M 234.414062 254.601562 L 140.585938 254.601562 C 140.234375 254.601562 139.890625 254.566406 139.546875 254.5 C 139.203125 254.429688 138.871094 254.328125 138.550781 254.195312 C 138.226562 254.0625 137.921875 253.898438 137.628906 253.703125 C 137.339844 253.507812 137.070312 253.285156 136.824219 253.039062 C 136.578125 252.792969 136.355469 252.523438 136.164062 252.230469 C 135.96875 251.941406 135.804688 251.632812 135.671875 251.308594 C 135.539062 250.984375 135.4375 250.652344 135.367188 250.308594 C 135.300781 249.964844 135.265625 249.617188 135.265625 249.269531 L 135.265625 180.898438 C 135.261719 180.03125 135.457031 179.210938 135.851562 178.4375 C 136.246094 177.664062 136.796875 177.027344 137.5 176.523438 L 184.46875 143.566406 C 184.914062 143.257812 185.394531 143.019531 185.910156 142.859375 C 186.429688 142.695312 186.957031 142.613281 187.5 142.613281 C 188.042969 142.613281 188.570312 142.695312 189.089844 142.859375 C 189.605469 143.019531 190.085938 143.257812 190.53125 143.566406 L 237.5 176.523438 C 238.203125 177.027344 238.753906 177.664062 239.148438 178.4375 C 239.542969 179.210938 239.738281 180.03125 239.734375 180.898438 L 239.734375 249.269531 C 239.734375 249.617188 239.699219 249.964844 239.632812 250.308594 C 239.5625 250.652344 239.460938 250.984375 239.328125 251.308594 C 239.195312 251.632812 239.03125 251.941406 238.835938 252.230469 C 238.644531 252.523438 238.421875 252.792969 238.175781 253.039062 C 237.929688 253.285156 237.660156 253.507812 237.371094 253.703125 C 237.078125 253.898438 236.773438 254.0625 236.449219 254.195312 C 236.128906 254.328125 235.796875 254.429688 235.453125 254.5 C 235.109375 254.566406 234.765625 254.601562 234.414062 254.601562 Z M 145.902344 243.933594 L 229.097656 243.933594 L 229.097656 183.671875 L 187.5 154.445312 L 145.902344 183.671875 Z M 145.902344 243.933594 " fill-opacity="1" fill-rule="nonzero"/></g><g clip-path="url(#id2)"><path fill="#22277a" d="M 205.792969 232.261719 C 200.605469 235.917969 194.285156 238.066406 187.457031 238.066406 C 169.84375 238.066406 155.566406 223.789062 155.566406 206.175781 C 155.566406 200.289062 157.167969 194.78125 159.949219 190.046875 L 176.496094 200.730469 C 175.679688 202.371094 175.21875 204.21875 175.21875 206.175781 C 175.21875 212.933594 180.699219 218.414062 187.457031 218.414062 C 190.617188 218.414062 193.5 217.214844 195.667969 215.25 L 205.792969 232.261719 " fill-opacity="1" fill-rule="nonzero"/></g><g clip-path="url(#id3)"><path fill="#4066e0" d="M 209.714844 183.347656 L 196.269531 197.691406 C 194.042969 195.382812 190.917969 193.941406 187.457031 193.941406 C 182.65625 193.941406 178.5 196.707031 176.496094 200.730469 L 159.949219 190.046875 C 165.488281 180.617188 175.730469 174.285156 187.457031 174.285156 C 196.117188 174.285156 203.96875 177.746094 209.714844 183.347656 " fill-opacity="1" fill-rule="nonzero"/></g><g clip-path="url(#id4)"><path fill="#b9bfff" d="M 219.347656 206.175781 C 219.347656 216.964844 213.988281 226.492188 205.792969 232.261719 L 195.667969 215.25 C 198.140625 213.007812 199.691406 209.773438 199.691406 206.175781 C 199.691406 202.882812 198.390625 199.890625 196.269531 197.691406 L 209.714844 183.347656 C 215.65625 189.140625 219.347656 197.226562 219.347656 206.175781 " fill-opacity="1" fill-rule="nonzero"/></g><g fill="#ffffff" fill-opacity="1"><g transform="translate(132.140621, 295.645733)"><g><path d="M 0.296875 -25.078125 L 0.296875 -31.34375 L 22.34375 -31.34375 L 22.34375 -25.078125 L 14.890625 -25.078125 L 14.890625 0 L 7.75 0 L 7.75 -25.078125 Z M 0.296875 -25.078125 "/></g></g></g><g fill="#ffffff" fill-opacity="1"><g transform="translate(154.783991, 295.645733)"><g><path d="M 2.28125 0 L 2.28125 -19.5 L 9 -19.5 L 9 -16.6875 L 9.078125 -16.6875 C 9.128906 -16.78125 9.210938 -16.90625 9.328125 -17.0625 C 9.441406 -17.21875 9.6875 -17.484375 10.0625 -17.859375 C 10.445312 -18.242188 10.851562 -18.585938 11.28125 -18.890625 C 11.71875 -19.191406 12.273438 -19.460938 12.953125 -19.703125 C 13.640625 -19.941406 14.335938 -20.0625 15.046875 -20.0625 C 15.785156 -20.0625 16.507812 -19.957031 17.21875 -19.75 C 17.925781 -19.550781 18.441406 -19.351562 18.765625 -19.15625 L 19.296875 -18.84375 L 16.484375 -13.140625 C 15.648438 -13.859375 14.488281 -14.21875 13 -14.21875 C 12.1875 -14.21875 11.488281 -14.035156 10.90625 -13.671875 C 10.320312 -13.316406 9.910156 -12.882812 9.671875 -12.375 C 9.429688 -11.875 9.257812 -11.445312 9.15625 -11.09375 C 9.050781 -10.738281 9 -10.460938 9 -10.265625 L 9 0 Z M 2.28125 0 "/></g></g></g><g fill="#ffffff" fill-opacity="1"><g transform="translate(173.704129, 295.645733)"><g><path d="M 3.609375 -2.40625 C 1.785156 -4.394531 0.875 -6.832031 0.875 -9.71875 C 0.875 -12.613281 1.785156 -15.0625 3.609375 -17.0625 C 5.429688 -19.0625 7.75 -20.0625 10.5625 -20.0625 C 13.144531 -20.0625 15.273438 -19.25 16.953125 -17.625 L 16.953125 -19.5 L 23.671875 -19.5 L 23.671875 0 L 17.03125 0 L 17.03125 -2.203125 L 16.953125 -2.203125 C 15.273438 -0.359375 13.144531 0.5625 10.5625 0.5625 C 7.75 0.5625 5.429688 -0.425781 3.609375 -2.40625 Z M 9.328125 -13.03125 C 8.453125 -12.164062 8.015625 -11.0625 8.015625 -9.71875 C 8.015625 -8.382812 8.429688 -7.289062 9.265625 -6.4375 C 10.109375 -5.59375 11.210938 -5.171875 12.578125 -5.171875 C 13.890625 -5.171875 14.96875 -5.597656 15.8125 -6.453125 C 16.664062 -7.316406 17.09375 -8.410156 17.09375 -9.734375 C 17.09375 -11.066406 16.65625 -12.164062 15.78125 -13.03125 C 14.914062 -13.894531 13.847656 -14.328125 12.578125 -14.328125 C 11.285156 -14.328125 10.203125 -13.894531 9.328125 -13.03125 Z M 9.328125 -13.03125 "/></g></g></g><g fill="#ffffff" fill-opacity="1"><g transform="translate(199.652828, 295.645733)"><g><path d="M 12.65625 -14.546875 C 11.382812 -14.546875 10.289062 -14.078125 9.375 -13.140625 C 8.46875 -12.203125 8.015625 -11.078125 8.015625 -9.765625 C 8.015625 -8.421875 8.46875 -7.28125 9.375 -6.34375 C 10.289062 -5.40625 11.382812 -4.9375 12.65625 -4.9375 C 13.257812 -4.9375 13.832031 -5.007812 14.375 -5.15625 C 14.925781 -5.3125 15.328125 -5.46875 15.578125 -5.625 L 15.921875 -5.859375 L 18.203125 -1.171875 C 18.023438 -1.046875 17.773438 -0.890625 17.453125 -0.703125 C 17.140625 -0.515625 16.421875 -0.257812 15.296875 0.0625 C 14.171875 0.394531 12.960938 0.5625 11.671875 0.5625 C 8.804688 0.5625 6.289062 -0.441406 4.125 -2.453125 C 1.957031 -4.460938 0.875 -6.875 0.875 -9.6875 C 0.875 -12.53125 1.957031 -14.96875 4.125 -17 C 6.289062 -19.039062 8.804688 -20.0625 11.671875 -20.0625 C 12.960938 -20.0625 14.148438 -19.910156 15.234375 -19.609375 C 16.328125 -19.304688 17.101562 -19.003906 17.5625 -18.703125 L 18.203125 -18.234375 L 15.921875 -13.640625 C 15.085938 -14.242188 14 -14.546875 12.65625 -14.546875 Z M 12.65625 -14.546875 "/></g></g></g><g fill="#ffffff" fill-opacity="1"><g transform="translate(218.307016, 295.645733)"><g><path d="M 24.546875 -19.5 L 15.28125 -10.1875 L 25.453125 0 L 16.796875 0 L 9 -7.796875 L 9 0 L 2.28125 0 L 2.28125 -32.6875 L 9 -32.6875 L 9 -12.6875 L 15.8125 -19.5 Z M 24.546875 -19.5 "/></g></g></g></svg>