<svg xmlns="http://www.w3.org/2000/svg" xmlns:xlink="http://www.w3.org/1999/xlink" width="500" zoomAndPan="magnify" viewBox="0 0 375 374.999991" height="500" preserveAspectRatio="xMidYMid meet" version="1.0"><defs><g/><clipPath id="id1"><path d="M 151.769531 129.398438 L 223.589844 129.398438 L 223.589844 206.550781 L 151.769531 206.550781 Z M 151.769531 129.398438 " clip-rule="nonzero"/></clipPath><clipPath id="id2"><path d="M 206.488281 157.585938 L 214.386719 157.585938 L 214.386719 199.652344 L 206.488281 199.652344 Z M 206.488281 157.585938 " clip-rule="nonzero"/></clipPath><clipPath id="id3"><path d="M 195 163 L 203 163 L 203 199.652344 L 195 199.652344 Z M 195 163 " clip-rule="nonzero"/></clipPath><clipPath id="id4"><path d="M 183.234375 170.4375 L 191.441406 170.4375 L 191.441406 199.652344 L 183.234375 199.652344 Z M 183.234375 170.4375 " clip-rule="nonzero"/></clipPath><clipPath id="id5"><path d="M 172 178 L 179.8125 178 L 179.8125 199.652344 L 172 199.652344 Z M 172 178 " clip-rule="nonzero"/></clipPath><clipPath id="id6"><path d="M 161.035156 188 L 168.871094 188 L 168.871094 199.652344 L 161.035156 199.652344 Z M 161.035156 188 " clip-rule="nonzero"/></clipPath></defs><path fill="#4066e0" d="M 234.976562 155.347656 C 234.21875 155.34375 233.527344 155.125 232.90625 154.691406 L 187.679688 123.320312 L 142.457031 154.691406 C 142.261719 154.8125 142.054688 154.914062 141.839844 155 C 141.621094 155.082031 141.402344 155.140625 141.171875 155.183594 C 140.945312 155.226562 140.714844 155.242188 140.488281 155.238281 C 140.253906 155.234375 140.027344 155.210938 139.800781 155.164062 C 139.574219 155.117188 139.355469 155.050781 139.140625 154.960938 C 138.929688 154.871094 138.726562 154.761719 138.535156 154.636719 C 138.339844 154.507812 138.160156 154.363281 137.996094 154.203125 C 137.832031 154.039062 137.679688 153.867188 137.550781 153.671875 C 137.417969 153.484375 137.304688 153.28125 137.210938 153.070312 C 137.117188 152.859375 137.046875 152.640625 136.992188 152.414062 C 136.941406 152.191406 136.910156 151.964844 136.902344 151.730469 C 136.894531 151.496094 136.90625 151.269531 136.941406 151.042969 C 136.976562 150.8125 137.03125 150.585938 137.109375 150.371094 C 137.1875 150.152344 137.285156 149.941406 137.402344 149.742188 C 137.519531 149.542969 137.65625 149.355469 137.808594 149.179688 C 137.960938 149.007812 138.125 148.851562 138.308594 148.707031 L 185.605469 115.878906 C 185.910156 115.664062 186.238281 115.503906 186.59375 115.394531 C 186.949219 115.285156 187.308594 115.226562 187.679688 115.226562 C 188.050781 115.226562 188.414062 115.285156 188.769531 115.394531 C 189.121094 115.503906 189.449219 115.664062 189.753906 115.878906 L 237.050781 148.707031 C 237.25 148.84375 237.429688 149 237.59375 149.171875 C 237.757812 149.34375 237.90625 149.53125 238.035156 149.730469 C 238.164062 149.933594 238.273438 150.144531 238.359375 150.367188 C 238.445312 150.59375 238.511719 150.820312 238.550781 151.054688 C 238.59375 151.292969 238.613281 151.527344 238.609375 151.769531 C 238.601562 152.003906 238.578125 152.242188 238.527344 152.476562 C 238.476562 152.710938 238.402344 152.933594 238.308594 153.15625 C 238.214844 153.375 238.097656 153.582031 237.960938 153.78125 C 237.621094 154.269531 237.191406 154.652344 236.660156 154.929688 C 236.132812 155.210938 235.574219 155.347656 234.976562 155.347656 Z M 234.976562 155.347656 " fill-opacity="1" fill-rule="nonzero"/><g clip-path="url(#id1)"><path fill="#000000" d="M 219.769531 206.417969 L 155.589844 206.417969 C 155.351562 206.417969 155.117188 206.394531 154.878906 206.347656 C 154.644531 206.300781 154.417969 206.230469 154.199219 206.140625 C 153.976562 206.050781 153.769531 205.9375 153.570312 205.804688 C 153.371094 205.671875 153.1875 205.519531 153.019531 205.351562 C 152.851562 205.179688 152.699219 204.996094 152.566406 204.796875 C 152.433594 204.597656 152.320312 204.386719 152.230469 204.164062 C 152.140625 203.945312 152.070312 203.71875 152.019531 203.480469 C 151.976562 203.246094 151.953125 203.007812 151.953125 202.769531 L 151.953125 156.003906 C 151.949219 155.414062 152.082031 154.851562 152.351562 154.320312 C 152.621094 153.792969 153 153.359375 153.480469 153.011719 L 185.605469 130.46875 C 185.910156 130.257812 186.238281 130.097656 186.59375 129.988281 C 186.949219 129.875 187.308594 129.820312 187.679688 129.820312 C 188.050781 129.820312 188.414062 129.875 188.769531 129.988281 C 189.121094 130.097656 189.449219 130.257812 189.753906 130.46875 L 221.878906 153.011719 C 222.359375 153.359375 222.738281 153.792969 223.007812 154.320312 C 223.277344 154.851562 223.410156 155.414062 223.410156 156.003906 L 223.410156 202.769531 C 223.410156 203.007812 223.382812 203.246094 223.339844 203.480469 C 223.289062 203.71875 223.222656 203.945312 223.128906 204.164062 C 223.039062 204.386719 222.925781 204.597656 222.792969 204.796875 C 222.664062 204.996094 222.511719 205.179688 222.34375 205.351562 C 222.175781 205.519531 221.988281 205.671875 221.792969 205.804688 C 221.589844 205.9375 221.382812 206.050781 221.160156 206.140625 C 220.941406 206.230469 220.714844 206.300781 220.480469 206.347656 C 220.246094 206.394531 220.011719 206.417969 219.769531 206.417969 Z M 159.226562 199.121094 L 216.132812 199.121094 L 216.132812 157.902344 L 187.679688 137.910156 L 159.226562 157.902344 Z M 159.226562 199.121094 " fill-opacity="1" fill-rule="nonzero"/></g><path fill="#8b74bd" d="M 207.292969 199.035156 L 213.683594 199.035156 L 213.683594 158.226562 L 207.292969 158.226562 L 207.292969 199.035156 " fill-opacity="1" fill-rule="nonzero"/><g clip-path="url(#id2)"><path fill="#4066e0" d="M 207.292969 199.035156 L 207.292969 199.667969 L 213.683594 199.667969 C 213.847656 199.667969 214.007812 199.601562 214.128906 199.480469 C 214.246094 199.363281 214.3125 199.203125 214.3125 199.035156 L 214.3125 158.226562 C 214.3125 158.0625 214.246094 157.902344 214.128906 157.78125 C 214.007812 157.667969 213.847656 157.601562 213.683594 157.601562 L 207.292969 157.601562 C 207.125 157.601562 206.964844 157.667969 206.847656 157.78125 C 206.730469 157.902344 206.664062 158.0625 206.664062 158.226562 L 206.664062 199.035156 C 206.664062 199.203125 206.730469 199.363281 206.847656 199.480469 C 206.964844 199.601562 207.125 199.667969 207.292969 199.667969 L 207.292969 199.035156 L 207.921875 199.035156 L 207.921875 158.855469 L 213.054688 158.855469 L 213.054688 198.40625 L 207.292969 198.40625 L 207.292969 199.035156 L 207.921875 199.035156 L 207.292969 199.035156 " fill-opacity="1" fill-rule="nonzero"/></g><path fill="#8b74bd" d="M 195.765625 199.035156 L 202.15625 199.035156 L 202.15625 163.832031 L 195.765625 163.832031 L 195.765625 199.035156 " fill-opacity="1" fill-rule="nonzero"/><g clip-path="url(#id3)"><path fill="#4066e0" d="M 195.765625 199.035156 L 195.765625 199.667969 L 202.15625 199.667969 C 202.320312 199.667969 202.480469 199.601562 202.601562 199.480469 C 202.71875 199.363281 202.785156 199.203125 202.785156 199.035156 L 202.785156 163.832031 C 202.785156 163.664062 202.71875 163.503906 202.601562 163.386719 C 202.480469 163.269531 202.320312 163.199219 202.15625 163.199219 L 195.765625 163.199219 C 195.601562 163.199219 195.4375 163.269531 195.320312 163.386719 C 195.203125 163.503906 195.136719 163.664062 195.136719 163.832031 L 195.136719 199.035156 C 195.136719 199.203125 195.203125 199.363281 195.320312 199.480469 C 195.4375 199.601562 195.601562 199.667969 195.765625 199.667969 L 195.765625 199.035156 L 196.394531 199.035156 L 196.394531 164.460938 L 201.527344 164.460938 L 201.527344 198.40625 L 195.765625 198.40625 L 195.765625 199.035156 L 196.394531 199.035156 L 195.765625 199.035156 " fill-opacity="1" fill-rule="nonzero"/></g><path fill="#8b74bd" d="M 184.238281 199.035156 L 190.632812 199.035156 L 190.632812 171.5625 L 184.238281 171.5625 L 184.238281 199.035156 " fill-opacity="1" fill-rule="nonzero"/><g clip-path="url(#id4)"><path fill="#4066e0" d="M 184.238281 199.035156 L 184.238281 199.667969 L 190.632812 199.667969 C 190.796875 199.667969 190.957031 199.601562 191.074219 199.480469 C 191.195312 199.363281 191.257812 199.203125 191.257812 199.035156 L 191.257812 171.5625 C 191.257812 171.398438 191.195312 171.238281 191.074219 171.121094 C 190.957031 171.003906 190.796875 170.9375 190.632812 170.9375 L 184.238281 170.9375 C 184.074219 170.9375 183.910156 171.003906 183.796875 171.121094 C 183.679688 171.238281 183.609375 171.398438 183.609375 171.5625 L 183.609375 199.035156 C 183.609375 199.203125 183.679688 199.363281 183.796875 199.480469 C 183.910156 199.601562 184.074219 199.667969 184.238281 199.667969 L 184.238281 199.035156 L 184.867188 199.035156 L 184.867188 172.195312 L 190.003906 172.195312 L 190.003906 198.40625 L 184.238281 198.40625 L 184.238281 199.035156 L 184.867188 199.035156 L 184.238281 199.035156 " fill-opacity="1" fill-rule="nonzero"/></g><path fill="#8b74bd" d="M 172.710938 199.035156 L 179.105469 199.035156 L 179.105469 178.632812 L 172.710938 178.632812 L 172.710938 199.035156 " fill-opacity="1" fill-rule="nonzero"/><g clip-path="url(#id5)"><path fill="#4066e0" d="M 172.710938 199.035156 L 172.710938 199.667969 L 179.105469 199.667969 C 179.269531 199.667969 179.433594 199.601562 179.546875 199.480469 C 179.664062 199.363281 179.730469 199.203125 179.730469 199.035156 L 179.730469 178.632812 C 179.730469 178.46875 179.664062 178.304688 179.546875 178.1875 C 179.433594 178.070312 179.269531 178.003906 179.105469 178.003906 L 172.710938 178.003906 C 172.546875 178.003906 172.382812 178.070312 172.269531 178.1875 C 172.152344 178.304688 172.085938 178.46875 172.085938 178.632812 L 172.085938 199.035156 C 172.085938 199.203125 172.152344 199.363281 172.269531 199.480469 C 172.382812 199.601562 172.546875 199.667969 172.710938 199.667969 L 172.710938 199.035156 L 173.339844 199.035156 L 173.339844 179.261719 L 178.476562 179.261719 L 178.476562 198.40625 L 172.710938 198.40625 L 172.710938 199.035156 L 173.339844 199.035156 L 172.710938 199.035156 " fill-opacity="1" fill-rule="nonzero"/></g><path fill="#8b74bd" d="M 161.71875 199.035156 L 168.113281 199.035156 L 168.113281 188.835938 L 161.71875 188.835938 L 161.71875 199.035156 " fill-opacity="1" fill-rule="nonzero"/><g clip-path="url(#id6)"><path fill="#4066e0" d="M 161.71875 199.035156 L 161.71875 199.667969 L 168.113281 199.667969 C 168.277344 199.667969 168.441406 199.601562 168.554688 199.480469 C 168.667969 199.363281 168.738281 199.203125 168.738281 199.035156 L 168.738281 188.835938 C 168.738281 188.667969 168.667969 188.507812 168.554688 188.386719 C 168.441406 188.273438 168.277344 188.203125 168.113281 188.203125 L 161.71875 188.203125 C 161.554688 188.203125 161.390625 188.273438 161.273438 188.386719 C 161.160156 188.507812 161.089844 188.667969 161.089844 188.835938 L 161.089844 199.035156 C 161.089844 199.203125 161.160156 199.363281 161.273438 199.480469 C 161.390625 199.601562 161.554688 199.667969 161.71875 199.667969 L 161.71875 199.035156 L 162.347656 199.035156 L 162.347656 189.464844 L 167.480469 189.464844 L 167.480469 198.40625 L 161.71875 198.40625 L 161.71875 199.035156 L 162.347656 199.035156 L 161.71875 199.035156 " fill-opacity="1" fill-rule="nonzero"/></g><g fill="#000000" fill-opacity="1"><g transform="translate(40.140175, 209.761915)"><g><path d="M 16.09375 10.140625 L 11.5625 7.296875 L 15.859375 0.484375 L 10.625 -2.828125 L 6.328125 3.984375 L 1.796875 1.140625 L 12.3125 -15.546875 L 16.84375 -12.703125 L 12.9375 -6.515625 L 18.171875 -3.203125 L 22.078125 -9.390625 L 26.609375 -6.546875 Z M 16.09375 10.140625 "/></g></g></g><g fill="#000000" fill-opacity="1"><g transform="translate(58.772589, 221.38822)"><g><path d="M 18.109375 0.875 C 16.941406 3.082031 15.4375 4.488281 13.59375 5.09375 C 11.75 5.695312 9.757812 5.4375 7.625 4.3125 C 5.570312 3.226562 4.269531 1.738281 3.71875 -0.15625 C 3.164062 -2.0625 3.457031 -4.09375 4.59375 -6.25 C 5.75 -8.457031 7.242188 -9.851562 9.078125 -10.4375 C 10.921875 -11.03125 12.914062 -10.765625 15.0625 -9.640625 C 16.394531 -8.929688 17.421875 -8.023438 18.140625 -6.921875 C 18.867188 -5.828125 19.226562 -4.609375 19.21875 -3.265625 C 19.21875 -1.921875 18.847656 -0.539062 18.109375 0.875 Z M 9.34375 -3.75 C 8.726562 -2.59375 8.414062 -1.628906 8.40625 -0.859375 C 8.394531 -0.0859375 8.757812 0.492188 9.5 0.890625 C 10.21875 1.265625 10.882812 1.222656 11.5 0.765625 C 12.125 0.316406 12.742188 -0.484375 13.359375 -1.640625 C 13.960938 -2.796875 14.265625 -3.742188 14.265625 -4.484375 C 14.273438 -5.234375 13.914062 -5.800781 13.1875 -6.1875 C 12.46875 -6.570312 11.796875 -6.550781 11.171875 -6.125 C 10.554688 -5.707031 9.945312 -4.914062 9.34375 -3.75 Z M 9.34375 -3.75 "/></g></g></g><g fill="#000000" fill-opacity="1"><g transform="translate(75.012859, 229.926571)"><g><path d="M 11.640625 5.09375 L 11.796875 3.078125 L 11.515625 2.953125 C 10.835938 3.429688 10.0625 3.679688 9.1875 3.703125 C 8.3125 3.734375 7.390625 3.535156 6.421875 3.109375 C 4.867188 2.429688 3.859375 1.457031 3.390625 0.1875 C 2.929688 -1.082031 3.0625 -2.53125 3.78125 -4.15625 L 7.765625 -13.28125 L 12.59375 -11.171875 L 9.25 -3.53125 C 8.84375 -2.613281 8.671875 -1.859375 8.734375 -1.265625 C 8.796875 -0.679688 9.117188 -0.257812 9.703125 0 C 10.535156 0.363281 11.269531 0.289062 11.90625 -0.21875 C 12.550781 -0.726562 13.210938 -1.757812 13.890625 -3.3125 L 16.578125 -9.4375 L 21.421875 -7.3125 L 15.296875 6.6875 Z M 11.640625 5.09375 "/></g></g></g><g fill="#000000" fill-opacity="1"><g transform="translate(92.629645, 237.53385)"><g><path d="M 14.40625 0.203125 C 13.84375 1.734375 12.894531 2.703125 11.5625 3.109375 C 10.238281 3.523438 8.597656 3.378906 6.640625 2.671875 C 5.566406 2.285156 4.65625 1.894531 3.90625 1.5 C 3.164062 1.101562 2.441406 0.601562 1.734375 0 L 3.15625 -3.96875 C 3.800781 -3.351562 4.539062 -2.769531 5.375 -2.21875 C 6.21875 -1.675781 7.003906 -1.273438 7.734375 -1.015625 C 8.796875 -0.628906 9.414062 -0.679688 9.59375 -1.171875 C 9.6875 -1.421875 9.617188 -1.695312 9.390625 -2 C 9.160156 -2.300781 8.425781 -3.003906 7.1875 -4.109375 C 6.070312 -5.117188 5.375 -6.0625 5.09375 -6.9375 C 4.820312 -7.820312 4.875 -8.789062 5.25 -9.84375 C 5.726562 -11.175781 6.617188 -12.03125 7.921875 -12.40625 C 9.222656 -12.78125 10.816406 -12.628906 12.703125 -11.953125 C 13.648438 -11.609375 14.503906 -11.179688 15.265625 -10.671875 C 16.023438 -10.171875 16.78125 -9.554688 17.53125 -8.828125 L 15.03125 -6.125 C 14.46875 -6.65625 13.859375 -7.15625 13.203125 -7.625 C 12.546875 -8.101562 11.988281 -8.425781 11.53125 -8.59375 C 10.71875 -8.882812 10.238281 -8.832031 10.09375 -8.4375 C 10.007812 -8.195312 10.070312 -7.9375 10.28125 -7.65625 C 10.5 -7.375 11.191406 -6.726562 12.359375 -5.71875 C 13.210938 -4.9375 13.816406 -4.257812 14.171875 -3.6875 C 14.523438 -3.113281 14.71875 -2.515625 14.75 -1.890625 C 14.789062 -1.273438 14.675781 -0.578125 14.40625 0.203125 Z M 14.40625 0.203125 "/></g></g></g><g fill="#000000" fill-opacity="1"><g transform="translate(107.100701, 242.757897)"><g><path d="M 8.765625 2.8125 C 6.304688 2.101562 4.59375 0.90625 3.625 -0.78125 C 2.65625 -2.46875 2.515625 -4.515625 3.203125 -6.921875 C 3.921875 -9.390625 5.097656 -11.109375 6.734375 -12.078125 C 8.367188 -13.046875 10.347656 -13.191406 12.671875 -12.515625 C 14.878906 -11.878906 16.421875 -10.8125 17.296875 -9.3125 C 18.179688 -7.8125 18.304688 -5.972656 17.671875 -3.796875 L 17.03125 -1.546875 L 7.96875 -4.171875 C 7.757812 -3.347656 7.867188 -2.617188 8.296875 -1.984375 C 8.734375 -1.347656 9.4375 -0.890625 10.40625 -0.609375 C 11.300781 -0.359375 12.144531 -0.207031 12.9375 -0.15625 C 13.738281 -0.101562 14.632812 -0.15625 15.625 -0.3125 L 14.5625 3.328125 C 13.65625 3.503906 12.753906 3.546875 11.859375 3.453125 C 10.960938 3.359375 9.929688 3.144531 8.765625 2.8125 Z M 11.875 -9.03125 C 11.269531 -9.207031 10.710938 -9.164062 10.203125 -8.90625 C 9.691406 -8.644531 9.28125 -8.117188 8.96875 -7.328125 L 13.328125 -6.0625 C 13.515625 -6.78125 13.476562 -7.40625 13.21875 -7.9375 C 12.96875 -8.476562 12.519531 -8.84375 11.875 -9.03125 Z M 11.875 -9.03125 "/></g></g></g><g fill="#000000" fill-opacity="1"><g transform="translate(124.252699, 247.769831)"><g><path d="M 18.640625 3.875 L 13.390625 2.78125 L 15.03125 -5.09375 L 8.96875 -6.359375 L 7.328125 1.515625 L 2.078125 0.4375 L 6.09375 -18.875 L 11.34375 -17.796875 L 9.84375 -10.625 L 15.90625 -9.359375 L 17.40625 -16.53125 L 22.65625 -15.4375 Z M 18.640625 3.875 "/></g></g></g><g fill="#000000" fill-opacity="1"><g transform="translate(145.776088, 252.137863)"><g><path d="M 17.265625 -5.53125 C 16.953125 -3.050781 16.035156 -1.207031 14.515625 0 C 13.003906 1.21875 11.046875 1.675781 8.640625 1.375 C 6.347656 1.082031 4.609375 0.140625 3.421875 -1.453125 C 2.242188 -3.046875 1.804688 -5.050781 2.109375 -7.46875 C 2.421875 -9.9375 3.332031 -11.769531 4.84375 -12.96875 C 6.351562 -14.164062 8.3125 -14.609375 10.71875 -14.296875 C 12.21875 -14.109375 13.5 -13.625 14.5625 -12.84375 C 15.625 -12.070312 16.390625 -11.054688 16.859375 -9.796875 C 17.335938 -8.535156 17.472656 -7.113281 17.265625 -5.53125 Z M 7.4375 -6.78125 C 7.269531 -5.476562 7.316406 -4.460938 7.578125 -3.734375 C 7.835938 -3.015625 8.378906 -2.601562 9.203125 -2.5 C 10.015625 -2.394531 10.628906 -2.660156 11.046875 -3.296875 C 11.460938 -3.929688 11.753906 -4.898438 11.921875 -6.203125 C 12.085938 -7.492188 12.039062 -8.492188 11.78125 -9.203125 C 11.53125 -9.910156 10.992188 -10.316406 10.171875 -10.421875 C 9.367188 -10.523438 8.753906 -10.269531 8.328125 -9.65625 C 7.898438 -9.039062 7.601562 -8.082031 7.4375 -6.78125 Z M 7.4375 -6.78125 "/></g></g></g><g fill="#000000" fill-opacity="1"><g transform="translate(163.791294, 254.306637)"><g><path d="M 7.078125 0.515625 L 1.828125 0.140625 L 3.375 -20.78125 L 8.625 -20.40625 Z M 7.078125 0.515625 "/></g></g></g><g fill="#000000" fill-opacity="1"><g transform="translate(173.238272, 255.10814)"><g><path d="M 6.5625 0.390625 C 5.476562 0.367188 4.535156 0.0390625 3.734375 -0.59375 C 2.929688 -1.226562 2.316406 -2.148438 1.890625 -3.359375 C 1.472656 -4.578125 1.28125 -5.992188 1.3125 -7.609375 C 1.363281 -10.085938 1.898438 -12.015625 2.921875 -13.390625 C 3.953125 -14.773438 5.335938 -15.445312 7.078125 -15.40625 C 7.929688 -15.394531 8.675781 -15.210938 9.3125 -14.859375 C 9.957031 -14.503906 10.535156 -13.914062 11.046875 -13.09375 L 11.15625 -13.09375 C 11 -14.289062 10.9375 -15.488281 10.96875 -16.6875 L 11.046875 -20.765625 L 16.359375 -20.65625 L 15.9375 0.328125 L 11.96875 0.234375 L 10.859375 -1.703125 L 10.65625 -1.703125 C 9.726562 -0.265625 8.363281 0.429688 6.5625 0.390625 Z M 8.8125 -3.71875 C 9.65625 -3.695312 10.253906 -3.945312 10.609375 -4.46875 C 10.960938 -5 11.164062 -5.820312 11.21875 -6.9375 L 11.234375 -7.34375 C 11.253906 -8.695312 11.078125 -9.660156 10.703125 -10.234375 C 10.335938 -10.804688 9.738281 -11.101562 8.90625 -11.125 C 8.21875 -11.132812 7.671875 -10.816406 7.265625 -10.171875 C 6.867188 -9.535156 6.660156 -8.617188 6.640625 -7.421875 C 6.609375 -6.234375 6.78125 -5.320312 7.15625 -4.6875 C 7.53125 -4.050781 8.082031 -3.726562 8.8125 -3.71875 Z M 8.8125 -3.71875 "/></g></g></g><g fill="#000000" fill-opacity="1"><g transform="translate(191.511047, 255.330621)"><g/></g></g><g fill="#000000" fill-opacity="1"><g transform="translate(198.97711, 255.102847)"><g/></g></g><g fill="#000000" fill-opacity="1"><g transform="translate(206.604109, 254.733695)"><g><path d="M 13.765625 -1.4375 L 2.109375 -0.21875 L 0.0625 -19.828125 L 11.71875 -21.046875 L 12.171875 -16.796875 L 5.8125 -16.125 L 6.125 -13.046875 L 12.015625 -13.671875 L 12.46875 -9.40625 L 6.578125 -8.78125 L 6.953125 -5.09375 L 13.3125 -5.765625 Z M 13.765625 -1.4375 "/></g></g></g><g fill="#000000" fill-opacity="1"><g transform="translate(222.353463, 253.111363)"><g><path d="M 3.671875 -8.53125 L -2.171875 -15.125 L 3.71875 -16.140625 L 6.734375 -12.3125 L 8.359375 -16.921875 L 14.265625 -17.9375 L 10.796875 -9.75 L 17.015625 -2.90625 L 11.125 -1.890625 L 7.796875 -6.046875 L 6.046875 -1.03125 L 0.140625 -0.03125 Z M 3.671875 -8.53125 "/></g></g></g><g fill="#000000" fill-opacity="1"><g transform="translate(240.217587, 250.044067)"><g><path d="M 10.75 -2.34375 C 9.988281 -2.15625 9.28125 -2.113281 8.625 -2.21875 C 7.96875 -2.320312 7.269531 -2.628906 6.53125 -3.140625 L 6.296875 -3.078125 C 6.710938 -2.078125 6.953125 -1.453125 7.015625 -1.203125 L 8.46875 4.765625 L 3.359375 6.015625 L -1.84375 -15.28125 L 2.3125 -16.296875 L 3.484375 -14.59375 L 3.71875 -14.65625 C 4.320312 -16.3125 5.46875 -17.34375 7.15625 -17.75 C 8.789062 -18.15625 10.242188 -17.789062 11.515625 -16.65625 C 12.785156 -15.519531 13.710938 -13.765625 14.296875 -11.390625 C 14.867188 -9.003906 14.832031 -7 14.1875 -5.375 C 13.550781 -3.757812 12.40625 -2.75 10.75 -2.34375 Z M 6.25 -13.265625 C 5.5 -13.078125 5.039062 -12.675781 4.875 -12.0625 C 4.707031 -11.457031 4.738281 -10.628906 4.96875 -9.578125 L 5.0625 -9.171875 C 5.375 -7.898438 5.765625 -7.019531 6.234375 -6.53125 C 6.710938 -6.050781 7.320312 -5.898438 8.0625 -6.078125 C 8.71875 -6.234375 9.125 -6.628906 9.28125 -7.265625 C 9.445312 -7.898438 9.375 -8.867188 9.0625 -10.171875 C 8.75 -11.441406 8.375 -12.316406 7.9375 -12.796875 C 7.507812 -13.273438 6.945312 -13.429688 6.25 -13.265625 Z M 6.25 -13.265625 "/></g></g></g><g fill="#000000" fill-opacity="1"><g transform="translate(258.163431, 245.623776)"><g><path d="M 8.84375 -2.546875 C 6.414062 -1.773438 4.320312 -1.816406 2.5625 -2.671875 C 0.8125 -3.535156 -0.441406 -5.160156 -1.203125 -7.546875 C -1.984375 -9.992188 -1.957031 -12.070312 -1.125 -13.78125 C -0.300781 -15.5 1.257812 -16.726562 3.5625 -17.46875 C 5.75 -18.164062 7.625 -18.132812 9.1875 -17.375 C 10.75 -16.613281 11.875 -15.15625 12.5625 -13 L 13.28125 -10.765625 L 4.28125 -7.890625 C 4.582031 -7.097656 5.085938 -6.554688 5.796875 -6.265625 C 6.503906 -5.984375 7.335938 -6 8.296875 -6.3125 C 9.179688 -6.59375 9.96875 -6.929688 10.65625 -7.328125 C 11.351562 -7.734375 12.070312 -8.28125 12.8125 -8.96875 L 13.96875 -5.34375 C 13.289062 -4.6875 12.554688 -4.148438 11.765625 -3.734375 C 10.972656 -3.316406 10 -2.921875 8.84375 -2.546875 Z M 4.828125 -14.109375 C 4.234375 -13.921875 3.796875 -13.578125 3.515625 -13.078125 C 3.242188 -12.578125 3.195312 -11.914062 3.375 -11.09375 L 7.6875 -12.46875 C 7.445312 -13.164062 7.070312 -13.664062 6.5625 -13.96875 C 6.050781 -14.269531 5.472656 -14.316406 4.828125 -14.109375 Z M 4.828125 -14.109375 "/></g></g></g><g fill="#000000" fill-opacity="1"><g transform="translate(275.128006, 240.197303)"><g><path d="M 10.640625 -4.265625 L 7.53125 -12.015625 C 7.15625 -12.953125 6.738281 -13.601562 6.28125 -13.96875 C 5.820312 -14.34375 5.296875 -14.410156 4.703125 -14.171875 C 3.867188 -13.835938 3.394531 -13.265625 3.28125 -12.453125 C 3.175781 -11.648438 3.445312 -10.445312 4.09375 -8.84375 L 6.578125 -2.640625 L 1.703125 -0.671875 L -3.984375 -14.859375 L -0.3125 -16.34375 L 1.015625 -14.84375 L 1.296875 -14.953125 C 1.460938 -15.785156 1.84375 -16.515625 2.4375 -17.140625 C 3.039062 -17.773438 3.828125 -18.285156 4.796875 -18.671875 C 6.359375 -19.296875 7.753906 -19.328125 8.984375 -18.765625 C 10.222656 -18.203125 11.175781 -17.09375 11.84375 -15.4375 L 15.53125 -6.21875 Z M 10.640625 -4.265625 "/></g></g></g><g fill="#000000" fill-opacity="1"><g transform="translate(292.909773, 232.984114)"><g><path d="M 10.25 -10.109375 C 10.957031 -8.640625 10.988281 -7.289062 10.34375 -6.0625 C 9.695312 -4.832031 8.4375 -3.765625 6.5625 -2.859375 C 5.539062 -2.367188 4.625 -1.992188 3.8125 -1.734375 C 3 -1.472656 2.132812 -1.300781 1.21875 -1.21875 L -0.609375 -5.03125 C 0.285156 -5.0625 1.222656 -5.179688 2.203125 -5.390625 C 3.179688 -5.609375 4.015625 -5.882812 4.703125 -6.21875 C 5.734375 -6.707031 6.140625 -7.1875 5.921875 -7.65625 C 5.796875 -7.894531 5.546875 -8.039062 5.171875 -8.09375 C 4.796875 -8.144531 3.78125 -8.113281 2.125 -8 C 0.613281 -7.914062 -0.546875 -8.082031 -1.359375 -8.5 C -2.179688 -8.925781 -2.835938 -9.644531 -3.328125 -10.65625 C -3.941406 -11.9375 -3.925781 -13.164062 -3.28125 -14.34375 C -2.644531 -15.53125 -1.421875 -16.5625 0.390625 -17.4375 C 1.304688 -17.875 2.210938 -18.1875 3.109375 -18.375 C 4.003906 -18.5625 4.96875 -18.664062 6 -18.6875 L 6.1875 -15.03125 C 5.414062 -15 4.628906 -14.910156 3.828125 -14.765625 C 3.023438 -14.617188 2.40625 -14.441406 1.96875 -14.234375 C 1.1875 -13.859375 0.882812 -13.484375 1.0625 -13.109375 C 1.175781 -12.878906 1.410156 -12.742188 1.765625 -12.703125 C 2.117188 -12.660156 3.066406 -12.703125 4.609375 -12.828125 C 5.753906 -12.890625 6.65625 -12.84375 7.3125 -12.6875 C 7.96875 -12.539062 8.53125 -12.257812 9 -11.84375 C 9.476562 -11.4375 9.894531 -10.859375 10.25 -10.109375 Z M 10.25 -10.109375 "/></g></g></g><g fill="#000000" fill-opacity="1"><g transform="translate(306.786675, 226.340937)"><g><path d="M 8.15625 -4.265625 C 5.925781 -3.015625 3.867188 -2.632812 1.984375 -3.125 C 0.0976562 -3.625 -1.453125 -4.960938 -2.671875 -7.140625 C -3.929688 -9.390625 -4.332031 -11.4375 -3.875 -13.28125 C -3.414062 -15.125 -2.128906 -16.640625 -0.015625 -17.828125 C 1.984375 -18.953125 3.828125 -19.296875 5.515625 -18.859375 C 7.203125 -18.429688 8.597656 -17.234375 9.703125 -15.265625 L 10.84375 -13.21875 L 2.609375 -8.59375 C 3.054688 -7.875 3.65625 -7.441406 4.40625 -7.296875 C 5.164062 -7.160156 5.984375 -7.34375 6.859375 -7.84375 C 7.671875 -8.289062 8.375 -8.78125 8.96875 -9.3125 C 9.570312 -9.851562 10.164062 -10.53125 10.75 -11.34375 L 12.609375 -8.03125 C 12.078125 -7.257812 11.46875 -6.585938 10.78125 -6.015625 C 10.09375 -5.453125 9.21875 -4.867188 8.15625 -4.265625 Z M 1.890625 -14.796875 C 1.347656 -14.484375 0.988281 -14.054688 0.8125 -13.515625 C 0.644531 -12.972656 0.734375 -12.316406 1.078125 -11.546875 L 5.03125 -13.765625 C 4.65625 -14.398438 4.1875 -14.8125 3.625 -15 C 3.0625 -15.1875 2.484375 -15.117188 1.890625 -14.796875 Z M 1.890625 -14.796875 "/></g></g></g><g fill="#000000" fill-opacity="1"><g transform="translate(322.218812, 217.610514)"><g><path d="M 8.890625 -11.34375 C 9.773438 -9.96875 9.972656 -8.628906 9.484375 -7.328125 C 9.003906 -6.023438 7.890625 -4.804688 6.140625 -3.671875 C 5.191406 -3.054688 4.332031 -2.566406 3.5625 -2.203125 C 2.800781 -1.847656 1.960938 -1.570312 1.046875 -1.375 L -1.25 -4.921875 C -0.363281 -5.066406 0.546875 -5.300781 1.484375 -5.625 C 2.429688 -5.957031 3.234375 -6.335938 3.890625 -6.765625 C 4.835938 -7.378906 5.171875 -7.90625 4.890625 -8.34375 C 4.742188 -8.570312 4.476562 -8.6875 4.09375 -8.6875 C 3.71875 -8.695312 2.71875 -8.535156 1.09375 -8.203125 C -0.394531 -7.921875 -1.570312 -7.9375 -2.4375 -8.25 C -3.3125 -8.570312 -4.054688 -9.203125 -4.671875 -10.140625 C -5.441406 -11.328125 -5.578125 -12.550781 -5.078125 -13.8125 C -4.585938 -15.070312 -3.5 -16.25 -1.8125 -17.34375 C -0.96875 -17.894531 -0.117188 -18.320312 0.734375 -18.625 C 1.597656 -18.925781 2.546875 -19.148438 3.578125 -19.296875 L 4.234375 -15.6875 C 3.460938 -15.5625 2.691406 -15.378906 1.921875 -15.140625 C 1.148438 -14.898438 0.554688 -14.644531 0.140625 -14.375 C -0.578125 -13.90625 -0.828125 -13.492188 -0.609375 -13.140625 C -0.460938 -12.921875 -0.210938 -12.816406 0.140625 -12.828125 C 0.492188 -12.835938 1.425781 -12.992188 2.9375 -13.296875 C 4.070312 -13.503906 4.972656 -13.570312 5.640625 -13.5 C 6.304688 -13.4375 6.898438 -13.234375 7.421875 -12.890625 C 7.953125 -12.546875 8.441406 -12.03125 8.890625 -11.34375 Z M 8.890625 -11.34375 "/></g></g></g></svg>