<svg xmlns="http://www.w3.org/2000/svg" xmlns:xlink="http://www.w3.org/1999/xlink" width="500" zoomAndPan="magnify" viewBox="0 0 375 374.999991" height="500" preserveAspectRatio="xMidYMid meet" version="1.0"><defs><g/><clipPath id="id1"><path d="M 151.769531 129.398438 L 223.589844 129.398438 L 223.589844 206.550781 L 151.769531 206.550781 Z M 151.769531 129.398438 " clip-rule="nonzero"/></clipPath><clipPath id="id2"><path d="M 206.488281 157.585938 L 214.386719 157.585938 L 214.386719 199.652344 L 206.488281 199.652344 Z M 206.488281 157.585938 " clip-rule="nonzero"/></clipPath><clipPath id="id3"><path d="M 195 163 L 203 163 L 203 199.652344 L 195 199.652344 Z M 195 163 " clip-rule="nonzero"/></clipPath><clipPath id="id4"><path d="M 183.234375 170.4375 L 191.441406 170.4375 L 191.441406 199.652344 L 183.234375 199.652344 Z M 183.234375 170.4375 " clip-rule="nonzero"/></clipPath><clipPath id="id5"><path d="M 172 178 L 179.8125 178 L 179.8125 199.652344 L 172 199.652344 Z M 172 178 " clip-rule="nonzero"/></clipPath><clipPath id="id6"><path d="M 161.035156 188 L 168.871094 188 L 168.871094 199.652344 L 161.035156 199.652344 Z M 161.035156 188 " clip-rule="nonzero"/></clipPath></defs><path fill="#4066e0" d="M 234.976562 155.347656 C 234.21875 155.34375 233.527344 155.125 232.90625 154.691406 L 187.679688 123.320312 L 142.457031 154.691406 C 142.261719 154.8125 142.054688 154.914062 141.839844 155 C 141.621094 155.082031 141.402344 155.140625 141.171875 155.183594 C 140.945312 155.226562 140.714844 155.242188 140.488281 155.238281 C 140.253906 155.234375 140.027344 155.210938 139.800781 155.164062 C 139.574219 155.117188 139.355469 155.050781 139.140625 154.960938 C 138.929688 154.871094 138.726562 154.761719 138.535156 154.636719 C 138.339844 154.507812 138.160156 154.363281 137.996094 154.203125 C 137.832031 154.039062 137.679688 153.867188 137.550781 153.671875 C 137.417969 153.484375 137.304688 153.28125 137.210938 153.070312 C 137.117188 152.859375 137.046875 152.640625 136.992188 152.414062 C 136.941406 152.191406 136.910156 151.964844 136.902344 151.730469 C 136.894531 151.496094 136.90625 151.269531 136.941406 151.042969 C 136.976562 150.8125 137.03125 150.585938 137.109375 150.371094 C 137.1875 150.152344 137.285156 149.941406 137.402344 149.742188 C 137.519531 149.542969 137.65625 149.355469 137.808594 149.179688 C 137.960938 149.007812 138.125 148.851562 138.308594 148.707031 L 185.605469 115.878906 C 185.910156 115.664062 186.238281 115.503906 186.59375 115.394531 C 186.949219 115.285156 187.308594 115.226562 187.679688 115.226562 C 188.050781 115.226562 188.414062 115.285156 188.769531 115.394531 C 189.121094 115.503906 189.449219 115.664062 189.753906 115.878906 L 237.050781 148.707031 C 237.25 148.84375 237.429688 149 237.59375 149.171875 C 237.757812 149.34375 237.90625 149.53125 238.035156 149.730469 C 238.164062 149.933594 238.273438 150.144531 238.359375 150.367188 C 238.445312 150.59375 238.511719 150.820312 238.550781 151.054688 C 238.59375 151.292969 238.613281 151.527344 238.609375 151.769531 C 238.601562 152.003906 238.578125 152.242188 238.527344 152.476562 C 238.476562 152.710938 238.402344 152.933594 238.308594 153.15625 C 238.214844 153.375 238.097656 153.582031 237.960938 153.78125 C 237.621094 154.269531 237.191406 154.652344 236.660156 154.929688 C 236.132812 155.210938 235.574219 155.347656 234.976562 155.347656 Z M 234.976562 155.347656 " fill-opacity="1" fill-rule="nonzero"/><g clip-path="url(#id1)"><path fill="#ffffff" d="M 219.769531 206.417969 L 155.589844 206.417969 C 155.351562 206.417969 155.117188 206.394531 154.878906 206.347656 C 154.644531 206.300781 154.417969 206.230469 154.199219 206.140625 C 153.976562 206.050781 153.769531 205.9375 153.570312 205.804688 C 153.371094 205.671875 153.1875 205.519531 153.019531 205.351562 C 152.851562 205.179688 152.699219 204.996094 152.566406 204.796875 C 152.433594 204.597656 152.320312 204.386719 152.230469 204.164062 C 152.140625 203.945312 152.070312 203.71875 152.019531 203.480469 C 151.976562 203.246094 151.953125 203.007812 151.953125 202.769531 L 151.953125 156.003906 C 151.949219 155.414062 152.082031 154.851562 152.351562 154.320312 C 152.621094 153.792969 153 153.359375 153.480469 153.011719 L 185.605469 130.46875 C 185.910156 130.257812 186.238281 130.097656 186.59375 129.988281 C 186.949219 129.875 187.308594 129.820312 187.679688 129.820312 C 188.050781 129.820312 188.414062 129.875 188.769531 129.988281 C 189.121094 130.097656 189.449219 130.257812 189.753906 130.46875 L 221.878906 153.011719 C 222.359375 153.359375 222.738281 153.792969 223.007812 154.320312 C 223.277344 154.851562 223.410156 155.414062 223.410156 156.003906 L 223.410156 202.769531 C 223.410156 203.007812 223.382812 203.246094 223.339844 203.480469 C 223.289062 203.71875 223.222656 203.945312 223.128906 204.164062 C 223.039062 204.386719 222.925781 204.597656 222.792969 204.796875 C 222.664062 204.996094 222.511719 205.179688 222.34375 205.351562 C 222.175781 205.519531 221.988281 205.671875 221.792969 205.804688 C 221.589844 205.9375 221.382812 206.050781 221.160156 206.140625 C 220.941406 206.230469 220.714844 206.300781 220.480469 206.347656 C 220.246094 206.394531 220.011719 206.417969 219.769531 206.417969 Z M 159.226562 199.121094 L 216.132812 199.121094 L 216.132812 157.902344 L 187.679688 137.910156 L 159.226562 157.902344 Z M 159.226562 199.121094 " fill-opacity="1" fill-rule="nonzero"/></g><path fill="#8b74bd" d="M 207.292969 199.035156 L 213.683594 199.035156 L 213.683594 158.226562 L 207.292969 158.226562 L 207.292969 199.035156 " fill-opacity="1" fill-rule="nonzero"/><g clip-path="url(#id2)"><path fill="#4066e0" d="M 207.292969 199.035156 L 207.292969 199.667969 L 213.683594 199.667969 C 213.847656 199.667969 214.007812 199.601562 214.128906 199.480469 C 214.246094 199.363281 214.3125 199.203125 214.3125 199.035156 L 214.3125 158.226562 C 214.3125 158.0625 214.246094 157.902344 214.128906 157.78125 C 214.007812 157.667969 213.847656 157.601562 213.683594 157.601562 L 207.292969 157.601562 C 207.125 157.601562 206.964844 157.667969 206.847656 157.78125 C 206.730469 157.902344 206.664062 158.0625 206.664062 158.226562 L 206.664062 199.035156 C 206.664062 199.203125 206.730469 199.363281 206.847656 199.480469 C 206.964844 199.601562 207.125 199.667969 207.292969 199.667969 L 207.292969 199.035156 L 207.921875 199.035156 L 207.921875 158.855469 L 213.054688 158.855469 L 213.054688 198.40625 L 207.292969 198.40625 L 207.292969 199.035156 L 207.921875 199.035156 L 207.292969 199.035156 " fill-opacity="1" fill-rule="nonzero"/></g><path fill="#8b74bd" d="M 195.765625 199.035156 L 202.15625 199.035156 L 202.15625 163.832031 L 195.765625 163.832031 L 195.765625 199.035156 " fill-opacity="1" fill-rule="nonzero"/><g clip-path="url(#id3)"><path fill="#4066e0" d="M 195.765625 199.035156 L 195.765625 199.667969 L 202.15625 199.667969 C 202.320312 199.667969 202.480469 199.601562 202.601562 199.480469 C 202.71875 199.363281 202.785156 199.203125 202.785156 199.035156 L 202.785156 163.832031 C 202.785156 163.664062 202.71875 163.503906 202.601562 163.386719 C 202.480469 163.269531 202.320312 163.199219 202.15625 163.199219 L 195.765625 163.199219 C 195.601562 163.199219 195.4375 163.269531 195.320312 163.386719 C 195.203125 163.503906 195.136719 163.664062 195.136719 163.832031 L 195.136719 199.035156 C 195.136719 199.203125 195.203125 199.363281 195.320312 199.480469 C 195.4375 199.601562 195.601562 199.667969 195.765625 199.667969 L 195.765625 199.035156 L 196.394531 199.035156 L 196.394531 164.460938 L 201.527344 164.460938 L 201.527344 198.40625 L 195.765625 198.40625 L 195.765625 199.035156 L 196.394531 199.035156 L 195.765625 199.035156 " fill-opacity="1" fill-rule="nonzero"/></g><path fill="#8b74bd" d="M 184.238281 199.035156 L 190.632812 199.035156 L 190.632812 171.5625 L 184.238281 171.5625 L 184.238281 199.035156 " fill-opacity="1" fill-rule="nonzero"/><g clip-path="url(#id4)"><path fill="#4066e0" d="M 184.238281 199.035156 L 184.238281 199.667969 L 190.632812 199.667969 C 190.796875 199.667969 190.957031 199.601562 191.074219 199.480469 C 191.195312 199.363281 191.257812 199.203125 191.257812 199.035156 L 191.257812 171.5625 C 191.257812 171.398438 191.195312 171.238281 191.074219 171.121094 C 190.957031 171.003906 190.796875 170.9375 190.632812 170.9375 L 184.238281 170.9375 C 184.074219 170.9375 183.910156 171.003906 183.796875 171.121094 C 183.679688 171.238281 183.609375 171.398438 183.609375 171.5625 L 183.609375 199.035156 C 183.609375 199.203125 183.679688 199.363281 183.796875 199.480469 C 183.910156 199.601562 184.074219 199.667969 184.238281 199.667969 L 184.238281 199.035156 L 184.867188 199.035156 L 184.867188 172.195312 L 190.003906 172.195312 L 190.003906 198.40625 L 184.238281 198.40625 L 184.238281 199.035156 L 184.867188 199.035156 L 184.238281 199.035156 " fill-opacity="1" fill-rule="nonzero"/></g><path fill="#8b74bd" d="M 172.710938 199.035156 L 179.105469 199.035156 L 179.105469 178.632812 L 172.710938 178.632812 L 172.710938 199.035156 " fill-opacity="1" fill-rule="nonzero"/><g clip-path="url(#id5)"><path fill="#4066e0" d="M 172.710938 199.035156 L 172.710938 199.667969 L 179.105469 199.667969 C 179.269531 199.667969 179.433594 199.601562 179.546875 199.480469 C 179.664062 199.363281 179.730469 199.203125 179.730469 199.035156 L 179.730469 178.632812 C 179.730469 178.46875 179.664062 178.304688 179.546875 178.1875 C 179.433594 178.070312 179.269531 178.003906 179.105469 178.003906 L 172.710938 178.003906 C 172.546875 178.003906 172.382812 178.070312 172.269531 178.1875 C 172.152344 178.304688 172.085938 178.46875 172.085938 178.632812 L 172.085938 199.035156 C 172.085938 199.203125 172.152344 199.363281 172.269531 199.480469 C 172.382812 199.601562 172.546875 199.667969 172.710938 199.667969 L 172.710938 199.035156 L 173.339844 199.035156 L 173.339844 179.261719 L 178.476562 179.261719 L 178.476562 198.40625 L 172.710938 198.40625 L 172.710938 199.035156 L 173.339844 199.035156 L 172.710938 199.035156 " fill-opacity="1" fill-rule="nonzero"/></g><path fill="#8b74bd" d="M 161.71875 199.035156 L 168.113281 199.035156 L 168.113281 188.835938 L 161.71875 188.835938 L 161.71875 199.035156 " fill-opacity="1" fill-rule="nonzero"/><g clip-path="url(#id6)"><path fill="#4066e0" d="M 161.71875 199.035156 L 161.71875 199.667969 L 168.113281 199.667969 C 168.277344 199.667969 168.441406 199.601562 168.554688 199.480469 C 168.667969 199.363281 168.738281 199.203125 168.738281 199.035156 L 168.738281 188.835938 C 168.738281 188.667969 168.667969 188.507812 168.554688 188.386719 C 168.441406 188.273438 168.277344 188.203125 168.113281 188.203125 L 161.71875 188.203125 C 161.554688 188.203125 161.390625 188.273438 161.273438 188.386719 C 161.160156 188.507812 161.089844 188.667969 161.089844 188.835938 L 161.089844 199.035156 C 161.089844 199.203125 161.160156 199.363281 161.273438 199.480469 C 161.390625 199.601562 161.554688 199.667969 161.71875 199.667969 L 161.71875 199.035156 L 162.347656 199.035156 L 162.347656 189.464844 L 167.480469 189.464844 L 167.480469 198.40625 L 161.71875 198.40625 L 161.71875 199.035156 L 162.347656 199.035156 L 161.71875 199.035156 " fill-opacity="1" fill-rule="nonzero"/></g><g fill="#ffffff" fill-opacity="1"><g transform="translate(37.536806, 248.575253)"><g><path d="M 19.03125 0 L 13.671875 0 L 13.671875 -8.046875 L 7.484375 -8.046875 L 7.484375 0 L 2.125 0 L 2.125 -19.71875 L 7.484375 -19.71875 L 7.484375 -12.40625 L 13.671875 -12.40625 L 13.671875 -19.71875 L 19.03125 -19.71875 Z M 19.03125 0 "/></g></g></g><g fill="#ffffff" fill-opacity="1"><g transform="translate(58.697686, 248.575253)"><g><path d="M 16.421875 -7.671875 C 16.421875 -5.171875 15.742188 -3.222656 14.390625 -1.828125 C 13.046875 -0.429688 11.164062 0.265625 8.75 0.265625 C 6.4375 0.265625 4.59375 -0.445312 3.21875 -1.875 C 1.84375 -3.300781 1.15625 -5.234375 1.15625 -7.671875 C 1.15625 -10.160156 1.828125 -12.09375 3.171875 -13.46875 C 4.515625 -14.851562 6.398438 -15.546875 8.828125 -15.546875 C 10.335938 -15.546875 11.664062 -15.226562 12.8125 -14.59375 C 13.96875 -13.957031 14.859375 -13.039062 15.484375 -11.84375 C 16.109375 -10.65625 16.421875 -9.265625 16.421875 -7.671875 Z M 6.515625 -7.671875 C 6.515625 -6.359375 6.6875 -5.359375 7.03125 -4.671875 C 7.382812 -3.984375 7.976562 -3.640625 8.8125 -3.640625 C 9.625 -3.640625 10.195312 -3.984375 10.53125 -4.671875 C 10.875 -5.359375 11.046875 -6.359375 11.046875 -7.671875 C 11.046875 -8.972656 10.875 -9.957031 10.53125 -10.625 C 10.1875 -11.289062 9.601562 -11.625 8.78125 -11.625 C 7.96875 -11.625 7.382812 -11.289062 7.03125 -10.625 C 6.6875 -9.96875 6.515625 -8.984375 6.515625 -7.671875 Z M 6.515625 -7.671875 "/></g></g></g><g fill="#ffffff" fill-opacity="1"><g transform="translate(76.298056, 248.575253)"><g><path d="M 12.703125 0 L 12.046875 -1.90625 L 11.734375 -1.90625 C 11.296875 -1.195312 10.679688 -0.65625 9.890625 -0.28125 C 9.109375 0.0820312 8.1875 0.265625 7.125 0.265625 C 5.4375 0.265625 4.125 -0.21875 3.1875 -1.1875 C 2.257812 -2.164062 1.796875 -3.546875 1.796875 -5.328125 L 1.796875 -15.28125 L 7.0625 -15.28125 L 7.0625 -6.9375 C 7.0625 -5.9375 7.203125 -5.175781 7.484375 -4.65625 C 7.773438 -4.144531 8.242188 -3.890625 8.890625 -3.890625 C 9.796875 -3.890625 10.441406 -4.25 10.828125 -4.96875 C 11.210938 -5.6875 11.40625 -6.894531 11.40625 -8.59375 L 11.40625 -15.28125 L 16.6875 -15.28125 L 16.6875 0 Z M 12.703125 0 "/></g></g></g><g fill="#ffffff" fill-opacity="1"><g transform="translate(94.802026, 248.575253)"><g><path d="M 13.625 -4.6875 C 13.625 -3.050781 13.066406 -1.816406 11.953125 -0.984375 C 10.835938 -0.148438 9.238281 0.265625 7.15625 0.265625 C 6.019531 0.265625 5.03125 0.203125 4.1875 0.078125 C 3.351562 -0.0351562 2.5 -0.253906 1.625 -0.578125 L 1.625 -4.796875 C 2.445312 -4.441406 3.34375 -4.144531 4.3125 -3.90625 C 5.289062 -3.675781 6.164062 -3.5625 6.9375 -3.5625 C 8.070312 -3.5625 8.640625 -3.820312 8.640625 -4.34375 C 8.640625 -4.613281 8.476562 -4.851562 8.15625 -5.0625 C 7.84375 -5.269531 6.914062 -5.679688 5.375 -6.296875 C 3.976562 -6.867188 3 -7.519531 2.4375 -8.25 C 1.882812 -8.988281 1.609375 -9.921875 1.609375 -11.046875 C 1.609375 -12.460938 2.15625 -13.566406 3.25 -14.359375 C 4.34375 -15.148438 5.894531 -15.546875 7.90625 -15.546875 C 8.914062 -15.546875 9.863281 -15.4375 10.75 -15.21875 C 11.632812 -15 12.550781 -14.675781 13.5 -14.25 L 12.078125 -10.859375 C 11.367188 -11.171875 10.625 -11.4375 9.84375 -11.65625 C 9.0625 -11.875 8.425781 -11.984375 7.9375 -11.984375 C 7.070312 -11.984375 6.640625 -11.773438 6.640625 -11.359375 C 6.640625 -11.097656 6.789062 -10.875 7.09375 -10.6875 C 7.394531 -10.5 8.265625 -10.125 9.703125 -9.5625 C 10.765625 -9.125 11.554688 -8.691406 12.078125 -8.265625 C 12.609375 -7.847656 13 -7.351562 13.25 -6.78125 C 13.5 -6.207031 13.625 -5.507812 13.625 -4.6875 Z M 13.625 -4.6875 "/></g></g></g><g fill="#ffffff" fill-opacity="1"><g transform="translate(109.529683, 248.575253)"><g><path d="M 9.203125 0.265625 C 6.648438 0.265625 4.671875 -0.410156 3.265625 -1.765625 C 1.859375 -3.117188 1.15625 -5.046875 1.15625 -7.546875 C 1.15625 -10.117188 1.804688 -12.09375 3.109375 -13.46875 C 4.421875 -14.851562 6.285156 -15.546875 8.703125 -15.546875 C 11.003906 -15.546875 12.78125 -14.945312 14.03125 -13.75 C 15.289062 -12.550781 15.921875 -10.820312 15.921875 -8.5625 L 15.921875 -6.21875 L 6.484375 -6.21875 C 6.523438 -5.363281 6.835938 -4.691406 7.421875 -4.203125 C 8.015625 -3.722656 8.816406 -3.484375 9.828125 -3.484375 C 10.753906 -3.484375 11.609375 -3.566406 12.390625 -3.734375 C 13.171875 -3.910156 14.015625 -4.210938 14.921875 -4.640625 L 14.921875 -0.84375 C 14.085938 -0.425781 13.226562 -0.140625 12.34375 0.015625 C 11.46875 0.179688 10.421875 0.265625 9.203125 0.265625 Z M 8.890625 -11.96875 C 8.265625 -11.96875 7.742188 -11.769531 7.328125 -11.375 C 6.910156 -10.988281 6.664062 -10.375 6.59375 -9.53125 L 11.125 -9.53125 C 11.101562 -10.269531 10.894531 -10.859375 10.5 -11.296875 C 10.101562 -11.742188 9.566406 -11.96875 8.890625 -11.96875 Z M 8.890625 -11.96875 "/></g></g></g><g fill="#ffffff" fill-opacity="1"><g transform="translate(126.60404, 248.575253)"><g><path d="M 19.03125 0 L 13.671875 0 L 13.671875 -8.046875 L 7.484375 -8.046875 L 7.484375 0 L 2.125 0 L 2.125 -19.71875 L 7.484375 -19.71875 L 7.484375 -12.40625 L 13.671875 -12.40625 L 13.671875 -19.71875 L 19.03125 -19.71875 Z M 19.03125 0 "/></g></g></g><g fill="#ffffff" fill-opacity="1"><g transform="translate(147.764937, 248.575253)"><g><path d="M 16.421875 -7.671875 C 16.421875 -5.171875 15.742188 -3.222656 14.390625 -1.828125 C 13.046875 -0.429688 11.164062 0.265625 8.75 0.265625 C 6.4375 0.265625 4.59375 -0.445312 3.21875 -1.875 C 1.84375 -3.300781 1.15625 -5.234375 1.15625 -7.671875 C 1.15625 -10.160156 1.828125 -12.09375 3.171875 -13.46875 C 4.515625 -14.851562 6.398438 -15.546875 8.828125 -15.546875 C 10.335938 -15.546875 11.664062 -15.226562 12.8125 -14.59375 C 13.96875 -13.957031 14.859375 -13.039062 15.484375 -11.84375 C 16.109375 -10.65625 16.421875 -9.265625 16.421875 -7.671875 Z M 6.515625 -7.671875 C 6.515625 -6.359375 6.6875 -5.359375 7.03125 -4.671875 C 7.382812 -3.984375 7.976562 -3.640625 8.8125 -3.640625 C 9.625 -3.640625 10.195312 -3.984375 10.53125 -4.671875 C 10.875 -5.359375 11.046875 -6.359375 11.046875 -7.671875 C 11.046875 -8.972656 10.875 -9.957031 10.53125 -10.625 C 10.1875 -11.289062 9.601562 -11.625 8.78125 -11.625 C 7.96875 -11.625 7.382812 -11.289062 7.03125 -10.625 C 6.6875 -9.96875 6.515625 -8.984375 6.515625 -7.671875 Z M 6.515625 -7.671875 "/></g></g></g><g fill="#ffffff" fill-opacity="1"><g transform="translate(165.365297, 248.575253)"><g><path d="M 7.09375 0 L 1.828125 0 L 1.828125 -20.984375 L 7.09375 -20.984375 Z M 7.09375 0 "/></g></g></g><g fill="#ffffff" fill-opacity="1"><g transform="translate(174.293607, 248.575253)"><g><path d="M 6.5625 0.265625 C 5.476562 0.265625 4.53125 -0.0390625 3.71875 -0.65625 C 2.90625 -1.28125 2.273438 -2.191406 1.828125 -3.390625 C 1.378906 -4.597656 1.15625 -6.007812 1.15625 -7.625 C 1.15625 -10.101562 1.65625 -12.039062 2.65625 -13.4375 C 3.65625 -14.84375 5.023438 -15.546875 6.765625 -15.546875 C 7.617188 -15.546875 8.367188 -15.375 9.015625 -15.03125 C 9.660156 -14.695312 10.25 -14.125 10.78125 -13.3125 L 10.890625 -13.3125 C 10.710938 -14.507812 10.625 -15.707031 10.625 -16.90625 L 10.625 -20.984375 L 15.9375 -20.984375 L 15.9375 0 L 11.96875 0 L 10.828125 -1.921875 L 10.625 -1.921875 C 9.71875 -0.460938 8.363281 0.265625 6.5625 0.265625 Z M 8.734375 -3.890625 C 9.578125 -3.890625 10.171875 -4.15625 10.515625 -4.6875 C 10.859375 -5.21875 11.046875 -6.039062 11.078125 -7.15625 L 11.078125 -7.5625 C 11.078125 -8.914062 10.882812 -9.875 10.5 -10.4375 C 10.113281 -11.007812 9.503906 -11.296875 8.671875 -11.296875 C 7.984375 -11.296875 7.445312 -10.96875 7.0625 -10.3125 C 6.675781 -9.664062 6.484375 -8.742188 6.484375 -7.546875 C 6.484375 -6.359375 6.675781 -5.453125 7.0625 -4.828125 C 7.445312 -4.203125 8.003906 -3.890625 8.734375 -3.890625 Z M 8.734375 -3.890625 "/></g></g></g><g fill="#ffffff" fill-opacity="1"><g transform="translate(192.055787, 248.575253)"><g/></g></g><g fill="#ffffff" fill-opacity="1"><g transform="translate(199.230798, 248.575253)"><g/></g></g><g fill="#ffffff" fill-opacity="1"><g transform="translate(206.40582, 248.575253)"><g><path d="M 13.84375 0 L 2.125 0 L 2.125 -19.71875 L 13.84375 -19.71875 L 13.84375 -15.4375 L 7.453125 -15.4375 L 7.453125 -12.34375 L 13.375 -12.34375 L 13.375 -8.0625 L 7.453125 -8.0625 L 7.453125 -4.34375 L 13.84375 -4.34375 Z M 13.84375 0 "/></g></g></g><g fill="#ffffff" fill-opacity="1"><g transform="translate(221.565047, 248.575253)"><g><path d="M 5.0625 -7.796875 L 0.390625 -15.28125 L 6.375 -15.28125 L 8.703125 -11 L 11.078125 -15.28125 L 17.078125 -15.28125 L 12.28125 -7.796875 L 17.265625 0 L 11.28125 0 L 8.703125 -4.640625 L 6.140625 0 L 0.140625 0 Z M 5.0625 -7.796875 "/></g></g></g><g fill="#ffffff" fill-opacity="1"><g transform="translate(238.963114, 248.575253)"><g><path d="M 11 0.265625 C 10.21875 0.265625 9.519531 0.140625 8.90625 -0.109375 C 8.300781 -0.367188 7.695312 -0.832031 7.09375 -1.5 L 6.859375 -1.5 C 7.015625 -0.425781 7.09375 0.238281 7.09375 0.5 L 7.09375 6.640625 L 1.828125 6.640625 L 1.828125 -15.28125 L 6.109375 -15.28125 L 6.859375 -13.34375 L 7.09375 -13.34375 C 8.070312 -14.8125 9.425781 -15.546875 11.15625 -15.546875 C 12.84375 -15.546875 14.164062 -14.84375 15.125 -13.4375 C 16.09375 -12.039062 16.578125 -10.117188 16.578125 -7.671875 C 16.578125 -5.210938 16.070312 -3.273438 15.0625 -1.859375 C 14.0625 -0.441406 12.707031 0.265625 11 0.265625 Z M 9.21875 -11.40625 C 8.445312 -11.40625 7.90625 -11.128906 7.59375 -10.578125 C 7.289062 -10.023438 7.125 -9.207031 7.09375 -8.125 L 7.09375 -7.703125 C 7.09375 -6.390625 7.265625 -5.441406 7.609375 -4.859375 C 7.960938 -4.273438 8.519531 -3.984375 9.28125 -3.984375 C 9.957031 -3.984375 10.445312 -4.269531 10.75 -4.84375 C 11.050781 -5.425781 11.203125 -6.390625 11.203125 -7.734375 C 11.203125 -9.046875 11.050781 -9.984375 10.75 -10.546875 C 10.445312 -11.117188 9.9375 -11.40625 9.21875 -11.40625 Z M 9.21875 -11.40625 "/></g></g></g><g fill="#ffffff" fill-opacity="1"><g transform="translate(256.725309, 248.575253)"><g><path d="M 9.203125 0.265625 C 6.648438 0.265625 4.671875 -0.410156 3.265625 -1.765625 C 1.859375 -3.117188 1.15625 -5.046875 1.15625 -7.546875 C 1.15625 -10.117188 1.804688 -12.09375 3.109375 -13.46875 C 4.421875 -14.851562 6.285156 -15.546875 8.703125 -15.546875 C 11.003906 -15.546875 12.78125 -14.945312 14.03125 -13.75 C 15.289062 -12.550781 15.921875 -10.820312 15.921875 -8.5625 L 15.921875 -6.21875 L 6.484375 -6.21875 C 6.523438 -5.363281 6.835938 -4.691406 7.421875 -4.203125 C 8.015625 -3.722656 8.816406 -3.484375 9.828125 -3.484375 C 10.753906 -3.484375 11.609375 -3.566406 12.390625 -3.734375 C 13.171875 -3.910156 14.015625 -4.210938 14.921875 -4.640625 L 14.921875 -0.84375 C 14.085938 -0.425781 13.226562 -0.140625 12.34375 0.015625 C 11.46875 0.179688 10.421875 0.265625 9.203125 0.265625 Z M 8.890625 -11.96875 C 8.265625 -11.96875 7.742188 -11.769531 7.328125 -11.375 C 6.910156 -10.988281 6.664062 -10.375 6.59375 -9.53125 L 11.125 -9.53125 C 11.101562 -10.269531 10.894531 -10.859375 10.5 -11.296875 C 10.101562 -11.742188 9.566406 -11.96875 8.890625 -11.96875 Z M 8.890625 -11.96875 "/></g></g></g><g fill="#ffffff" fill-opacity="1"><g transform="translate(273.799674, 248.575253)"><g><path d="M 11.46875 0 L 11.46875 -8.34375 C 11.46875 -9.351562 11.320312 -10.113281 11.03125 -10.625 C 10.738281 -11.144531 10.269531 -11.40625 9.625 -11.40625 C 8.726562 -11.40625 8.082031 -11.050781 7.6875 -10.34375 C 7.289062 -9.632812 7.09375 -8.414062 7.09375 -6.6875 L 7.09375 0 L 1.828125 0 L 1.828125 -15.28125 L 5.796875 -15.28125 L 6.46875 -13.390625 L 6.765625 -13.390625 C 7.222656 -14.109375 7.847656 -14.644531 8.640625 -15 C 9.429688 -15.363281 10.347656 -15.546875 11.390625 -15.546875 C 13.078125 -15.546875 14.390625 -15.054688 15.328125 -14.078125 C 16.265625 -13.097656 16.734375 -11.71875 16.734375 -9.9375 L 16.734375 0 Z M 11.46875 0 "/></g></g></g><g fill="#ffffff" fill-opacity="1"><g transform="translate(292.303639, 248.575253)"><g><path d="M 13.625 -4.6875 C 13.625 -3.050781 13.066406 -1.816406 11.953125 -0.984375 C 10.835938 -0.148438 9.238281 0.265625 7.15625 0.265625 C 6.019531 0.265625 5.03125 0.203125 4.1875 0.078125 C 3.351562 -0.0351562 2.5 -0.253906 1.625 -0.578125 L 1.625 -4.796875 C 2.445312 -4.441406 3.34375 -4.144531 4.3125 -3.90625 C 5.289062 -3.675781 6.164062 -3.5625 6.9375 -3.5625 C 8.070312 -3.5625 8.640625 -3.820312 8.640625 -4.34375 C 8.640625 -4.613281 8.476562 -4.851562 8.15625 -5.0625 C 7.84375 -5.269531 6.914062 -5.679688 5.375 -6.296875 C 3.976562 -6.867188 3 -7.519531 2.4375 -8.25 C 1.882812 -8.988281 1.609375 -9.921875 1.609375 -11.046875 C 1.609375 -12.460938 2.15625 -13.566406 3.25 -14.359375 C 4.34375 -15.148438 5.894531 -15.546875 7.90625 -15.546875 C 8.914062 -15.546875 9.863281 -15.4375 10.75 -15.21875 C 11.632812 -15 12.550781 -14.675781 13.5 -14.25 L 12.078125 -10.859375 C 11.367188 -11.171875 10.625 -11.4375 9.84375 -11.65625 C 9.0625 -11.875 8.425781 -11.984375 7.9375 -11.984375 C 7.070312 -11.984375 6.640625 -11.773438 6.640625 -11.359375 C 6.640625 -11.097656 6.789062 -10.875 7.09375 -10.6875 C 7.394531 -10.5 8.265625 -10.125 9.703125 -9.5625 C 10.765625 -9.125 11.554688 -8.691406 12.078125 -8.265625 C 12.609375 -7.847656 13 -7.351562 13.25 -6.78125 C 13.5 -6.207031 13.625 -5.507812 13.625 -4.6875 Z M 13.625 -4.6875 "/></g></g></g><g fill="#ffffff" fill-opacity="1"><g transform="translate(307.031293, 248.575253)"><g><path d="M 9.203125 0.265625 C 6.648438 0.265625 4.671875 -0.410156 3.265625 -1.765625 C 1.859375 -3.117188 1.15625 -5.046875 1.15625 -7.546875 C 1.15625 -10.117188 1.804688 -12.09375 3.109375 -13.46875 C 4.421875 -14.851562 6.285156 -15.546875 8.703125 -15.546875 C 11.003906 -15.546875 12.78125 -14.945312 14.03125 -13.75 C 15.289062 -12.550781 15.921875 -10.820312 15.921875 -8.5625 L 15.921875 -6.21875 L 6.484375 -6.21875 C 6.523438 -5.363281 6.835938 -4.691406 7.421875 -4.203125 C 8.015625 -3.722656 8.816406 -3.484375 9.828125 -3.484375 C 10.753906 -3.484375 11.609375 -3.566406 12.390625 -3.734375 C 13.171875 -3.910156 14.015625 -4.210938 14.921875 -4.640625 L 14.921875 -0.84375 C 14.085938 -0.425781 13.226562 -0.140625 12.34375 0.015625 C 11.46875 0.179688 10.421875 0.265625 9.203125 0.265625 Z M 8.890625 -11.96875 C 8.265625 -11.96875 7.742188 -11.769531 7.328125 -11.375 C 6.910156 -10.988281 6.664062 -10.375 6.59375 -9.53125 L 11.125 -9.53125 C 11.101562 -10.269531 10.894531 -10.859375 10.5 -11.296875 C 10.101562 -11.742188 9.566406 -11.96875 8.890625 -11.96875 Z M 8.890625 -11.96875 "/></g></g></g><g fill="#ffffff" fill-opacity="1"><g transform="translate(324.105657, 248.575253)"><g><path d="M 13.625 -4.6875 C 13.625 -3.050781 13.066406 -1.816406 11.953125 -0.984375 C 10.835938 -0.148438 9.238281 0.265625 7.15625 0.265625 C 6.019531 0.265625 5.03125 0.203125 4.1875 0.078125 C 3.351562 -0.0351562 2.5 -0.253906 1.625 -0.578125 L 1.625 -4.796875 C 2.445312 -4.441406 3.34375 -4.144531 4.3125 -3.90625 C 5.289062 -3.675781 6.164062 -3.5625 6.9375 -3.5625 C 8.070312 -3.5625 8.640625 -3.820312 8.640625 -4.34375 C 8.640625 -4.613281 8.476562 -4.851562 8.15625 -5.0625 C 7.84375 -5.269531 6.914062 -5.679688 5.375 -6.296875 C 3.976562 -6.867188 3 -7.519531 2.4375 -8.25 C 1.882812 -8.988281 1.609375 -9.921875 1.609375 -11.046875 C 1.609375 -12.460938 2.15625 -13.566406 3.25 -14.359375 C 4.34375 -15.148438 5.894531 -15.546875 7.90625 -15.546875 C 8.914062 -15.546875 9.863281 -15.4375 10.75 -15.21875 C 11.632812 -15 12.550781 -14.675781 13.5 -14.25 L 12.078125 -10.859375 C 11.367188 -11.171875 10.625 -11.4375 9.84375 -11.65625 C 9.0625 -11.875 8.425781 -11.984375 7.9375 -11.984375 C 7.070312 -11.984375 6.640625 -11.773438 6.640625 -11.359375 C 6.640625 -11.097656 6.789062 -10.875 7.09375 -10.6875 C 7.394531 -10.5 8.265625 -10.125 9.703125 -9.5625 C 10.765625 -9.125 11.554688 -8.691406 12.078125 -8.265625 C 12.609375 -7.847656 13 -7.351562 13.25 -6.78125 C 13.5 -6.207031 13.625 -5.507812 13.625 -4.6875 Z M 13.625 -4.6875 "/></g></g></g></svg>