<svg xmlns="http://www.w3.org/2000/svg" xmlns:xlink="http://www.w3.org/1999/xlink" width="500" zoomAndPan="magnify" viewBox="0 0 375 374.999991" height="500" preserveAspectRatio="xMidYMid meet" version="1.0"><defs><clipPath id="id1"><path d="M 135 142 L 240 142 L 240 254.796875 L 135 254.796875 Z M 135 142 " clip-rule="nonzero"/></clipPath><clipPath id="id2"><path d="M 215 183.210938 L 226.546875 183.210938 L 226.546875 244.710938 L 215 244.710938 Z M 215 183.210938 " clip-rule="nonzero"/></clipPath><clipPath id="id3"><path d="M 198 191 L 210 191 L 210 244.710938 L 198 244.710938 Z M 198 191 " clip-rule="nonzero"/></clipPath><clipPath id="id4"><path d="M 181 202 L 193 202 L 193 244.710938 L 181 244.710938 Z M 181 202 " clip-rule="nonzero"/></clipPath><clipPath id="id5"><path d="M 164 213 L 176 213 L 176 244.710938 L 164 244.710938 Z M 164 213 " clip-rule="nonzero"/></clipPath><clipPath id="id6"><path d="M 148.546875 227 L 160 227 L 160 244.710938 L 148.546875 244.710938 Z M 148.546875 227 " clip-rule="nonzero"/></clipPath></defs><path fill="#4066e0" d="M 256.648438 179.9375 C 255.539062 179.933594 254.527344 179.613281 253.617188 178.976562 L 187.5 133.113281 L 121.382812 178.976562 C 121.097656 179.15625 120.796875 179.304688 120.480469 179.425781 C 120.164062 179.546875 119.839844 179.636719 119.507812 179.695312 C 119.175781 179.757812 118.839844 179.785156 118.503906 179.777344 C 118.164062 179.773438 117.832031 179.738281 117.5 179.667969 C 117.171875 179.601562 116.847656 179.5 116.535156 179.371094 C 116.226562 179.242188 115.929688 179.082031 115.648438 178.894531 C 115.363281 178.710938 115.101562 178.5 114.863281 178.261719 C 114.621094 178.023438 114.402344 177.769531 114.210938 177.488281 C 114.019531 177.210938 113.851562 176.917969 113.714844 176.609375 C 113.578125 176.300781 113.472656 175.980469 113.394531 175.648438 C 113.320312 175.320312 113.277344 174.988281 113.261719 174.648438 C 113.25 174.308594 113.269531 173.972656 113.320312 173.640625 C 113.371094 173.304688 113.453125 172.976562 113.566406 172.660156 C 113.679688 172.339844 113.820312 172.035156 113.992188 171.742188 C 114.164062 171.449219 114.363281 171.175781 114.585938 170.921875 C 114.808594 170.667969 115.050781 170.4375 115.320312 170.230469 L 184.46875 122.234375 C 184.914062 121.921875 185.394531 121.6875 185.910156 121.523438 C 186.429688 121.363281 186.957031 121.28125 187.5 121.28125 C 188.042969 121.28125 188.570312 121.363281 189.089844 121.523438 C 189.605469 121.6875 190.085938 121.921875 190.53125 122.234375 L 259.679688 170.230469 C 259.96875 170.429688 260.230469 170.65625 260.472656 170.910156 C 260.714844 171.160156 260.929688 171.433594 261.117188 171.726562 C 261.304688 172.023438 261.464844 172.332031 261.589844 172.65625 C 261.71875 172.984375 261.8125 173.316406 261.875 173.660156 C 261.9375 174.007812 261.964844 174.351562 261.957031 174.703125 C 261.949219 175.050781 261.910156 175.398438 261.835938 175.738281 C 261.761719 176.082031 261.65625 176.410156 261.515625 176.730469 C 261.378906 177.054688 261.210938 177.355469 261.011719 177.644531 C 260.515625 178.359375 259.882812 178.921875 259.109375 179.328125 C 258.339844 179.734375 257.519531 179.9375 256.648438 179.9375 Z M 256.648438 179.9375 " fill-opacity="1" fill-rule="nonzero"/><g clip-path="url(#id1)"><path fill="#000000" d="M 234.414062 254.601562 L 140.585938 254.601562 C 140.234375 254.601562 139.890625 254.566406 139.546875 254.5 C 139.203125 254.429688 138.871094 254.328125 138.550781 254.195312 C 138.226562 254.0625 137.921875 253.898438 137.628906 253.703125 C 137.339844 253.507812 137.070312 253.285156 136.824219 253.039062 C 136.578125 252.792969 136.355469 252.523438 136.164062 252.230469 C 135.96875 251.941406 135.804688 251.632812 135.671875 251.308594 C 135.539062 250.984375 135.4375 250.652344 135.367188 250.308594 C 135.300781 249.964844 135.265625 249.617188 135.265625 249.269531 L 135.265625 180.898438 C 135.261719 180.03125 135.457031 179.210938 135.851562 178.4375 C 136.246094 177.664062 136.796875 177.027344 137.5 176.523438 L 184.46875 143.566406 C 184.914062 143.257812 185.394531 143.019531 185.910156 142.859375 C 186.429688 142.695312 186.957031 142.613281 187.5 142.613281 C 188.042969 142.613281 188.570312 142.695312 189.089844 142.859375 C 189.605469 143.019531 190.085938 143.257812 190.53125 143.566406 L 237.5 176.523438 C 238.203125 177.027344 238.753906 177.664062 239.148438 178.4375 C 239.542969 179.210938 239.738281 180.03125 239.734375 180.898438 L 239.734375 249.269531 C 239.734375 249.617188 239.699219 249.964844 239.632812 250.308594 C 239.5625 250.652344 239.460938 250.984375 239.328125 251.308594 C 239.195312 251.632812 239.03125 251.941406 238.835938 252.230469 C 238.644531 252.523438 238.421875 252.792969 238.175781 253.039062 C 237.929688 253.285156 237.660156 253.507812 237.371094 253.703125 C 237.078125 253.898438 236.773438 254.0625 236.449219 254.195312 C 236.128906 254.328125 235.796875 254.429688 235.453125 254.5 C 235.109375 254.566406 234.765625 254.601562 234.414062 254.601562 Z M 145.902344 243.933594 L 229.097656 243.933594 L 229.097656 183.671875 L 187.5 154.445312 L 145.902344 183.671875 Z M 145.902344 243.933594 " fill-opacity="1" fill-rule="nonzero"/></g><path fill="#8b74bd" d="M 216.171875 243.808594 L 225.515625 243.808594 L 225.515625 184.148438 L 216.171875 184.148438 L 216.171875 243.808594 " fill-opacity="1" fill-rule="nonzero"/><g clip-path="url(#id2)"><path fill="#292626" d="M 216.171875 243.808594 L 216.171875 244.730469 L 225.515625 244.730469 C 225.757812 244.730469 225.992188 244.632812 226.167969 244.460938 C 226.339844 244.285156 226.433594 244.050781 226.433594 243.808594 L 226.433594 184.148438 C 226.433594 183.90625 226.339844 183.671875 226.167969 183.496094 C 225.992188 183.328125 225.757812 183.230469 225.515625 183.230469 L 216.171875 183.230469 C 215.929688 183.230469 215.691406 183.328125 215.523438 183.496094 C 215.351562 183.671875 215.253906 183.90625 215.253906 184.148438 L 215.253906 243.808594 C 215.253906 244.050781 215.351562 244.289062 215.523438 244.460938 C 215.691406 244.632812 215.929688 244.730469 216.171875 244.730469 L 216.171875 243.808594 L 217.09375 243.808594 L 217.09375 185.066406 L 224.597656 185.066406 L 224.597656 242.890625 L 216.171875 242.890625 L 216.171875 243.808594 L 217.09375 243.808594 L 216.171875 243.808594 " fill-opacity="1" fill-rule="nonzero"/></g><path fill="#8b74bd" d="M 199.320312 243.808594 L 208.664062 243.808594 L 208.664062 192.339844 L 199.320312 192.339844 L 199.320312 243.808594 " fill-opacity="1" fill-rule="nonzero"/><g clip-path="url(#id3)"><path fill="#292626" d="M 199.320312 243.808594 L 199.320312 244.730469 L 208.664062 244.730469 C 208.90625 244.730469 209.140625 244.632812 209.3125 244.460938 C 209.484375 244.285156 209.585938 244.050781 209.585938 243.808594 L 209.585938 192.339844 C 209.585938 192.097656 209.484375 191.859375 209.3125 191.6875 C 209.140625 191.515625 208.90625 191.417969 208.664062 191.417969 L 199.320312 191.417969 C 199.078125 191.417969 198.839844 191.515625 198.671875 191.6875 C 198.5 191.859375 198.402344 192.097656 198.402344 192.339844 L 198.402344 243.808594 C 198.402344 244.050781 198.5 244.289062 198.671875 244.460938 C 198.839844 244.632812 199.078125 244.730469 199.320312 244.730469 L 199.320312 243.808594 L 200.242188 243.808594 L 200.242188 193.257812 L 207.746094 193.257812 L 207.746094 242.890625 L 199.320312 242.890625 L 199.320312 243.808594 L 200.242188 243.808594 L 199.320312 243.808594 " fill-opacity="1" fill-rule="nonzero"/></g><path fill="#8b74bd" d="M 182.46875 243.808594 L 191.816406 243.808594 L 191.816406 203.644531 L 182.46875 203.644531 L 182.46875 243.808594 " fill-opacity="1" fill-rule="nonzero"/><g clip-path="url(#id4)"><path fill="#292626" d="M 182.46875 243.808594 L 182.46875 244.730469 L 191.816406 244.730469 C 192.054688 244.730469 192.292969 244.632812 192.460938 244.460938 C 192.636719 244.285156 192.730469 244.050781 192.730469 243.808594 L 192.730469 203.644531 C 192.730469 203.402344 192.636719 203.167969 192.460938 202.996094 C 192.292969 202.824219 192.054688 202.726562 191.816406 202.726562 L 182.46875 202.726562 C 182.226562 202.726562 181.988281 202.824219 181.820312 202.996094 C 181.648438 203.167969 181.550781 203.402344 181.550781 203.644531 L 181.550781 243.808594 C 181.550781 244.050781 181.648438 244.289062 181.820312 244.460938 C 181.988281 244.632812 182.226562 244.730469 182.46875 244.730469 L 182.46875 243.808594 L 183.386719 243.808594 L 183.386719 204.566406 L 190.894531 204.566406 L 190.894531 242.890625 L 182.46875 242.890625 L 182.46875 243.808594 L 183.386719 243.808594 L 182.46875 243.808594 " fill-opacity="1" fill-rule="nonzero"/></g><path fill="#8b74bd" d="M 165.617188 243.808594 L 174.964844 243.808594 L 174.964844 213.980469 L 165.617188 213.980469 L 165.617188 243.808594 " fill-opacity="1" fill-rule="nonzero"/><g clip-path="url(#id5)"><path fill="#292626" d="M 165.617188 243.808594 L 165.617188 244.730469 L 174.964844 244.730469 C 175.203125 244.730469 175.441406 244.632812 175.609375 244.460938 C 175.78125 244.285156 175.878906 244.050781 175.878906 243.808594 L 175.878906 213.980469 C 175.878906 213.738281 175.78125 213.5 175.609375 213.328125 C 175.441406 213.15625 175.203125 213.058594 174.964844 213.058594 L 165.617188 213.058594 C 165.375 213.058594 165.136719 213.15625 164.96875 213.328125 C 164.796875 213.5 164.699219 213.738281 164.699219 213.980469 L 164.699219 243.808594 C 164.699219 244.050781 164.796875 244.289062 164.96875 244.460938 C 165.136719 244.632812 165.375 244.730469 165.617188 244.730469 L 165.617188 243.808594 L 166.535156 243.808594 L 166.535156 214.898438 L 174.042969 214.898438 L 174.042969 242.890625 L 165.617188 242.890625 L 165.617188 243.808594 L 166.535156 243.808594 L 165.617188 243.808594 " fill-opacity="1" fill-rule="nonzero"/></g><path fill="#8b74bd" d="M 149.546875 243.808594 L 158.890625 243.808594 L 158.890625 228.894531 L 149.546875 228.894531 L 149.546875 243.808594 " fill-opacity="1" fill-rule="nonzero"/><g clip-path="url(#id6)"><path fill="#292626" d="M 149.546875 243.808594 L 149.546875 244.730469 L 158.890625 244.730469 C 159.132812 244.730469 159.371094 244.632812 159.539062 244.460938 C 159.707031 244.285156 159.808594 244.050781 159.808594 243.808594 L 159.808594 228.894531 C 159.808594 228.652344 159.707031 228.414062 159.539062 228.242188 C 159.371094 228.074219 159.132812 227.972656 158.890625 227.972656 L 149.546875 227.972656 C 149.304688 227.972656 149.066406 228.074219 148.894531 228.242188 C 148.726562 228.414062 148.625 228.652344 148.625 228.894531 L 148.625 243.808594 C 148.625 244.050781 148.726562 244.289062 148.894531 244.460938 C 149.066406 244.632812 149.304688 244.730469 149.546875 244.730469 L 149.546875 243.808594 L 150.464844 243.808594 L 150.464844 229.816406 L 157.96875 229.816406 L 157.96875 242.890625 L 149.546875 242.890625 L 149.546875 243.808594 L 150.464844 243.808594 L 149.546875 243.808594 " fill-opacity="1" fill-rule="nonzero"/></g></svg>